<svg width="26" height="26" viewBox="0 0 26 26" fill="none" xmlns="http://www.w3.org/2000/svg">
<path d="M9.75008 23.8333H16.2501C21.6667 23.8333 23.8334 21.6667 23.8334 16.25V9.74999C23.8334 4.33332 21.6667 2.16666 16.2501 2.16666H9.75008C4.33341 2.16666 2.16675 4.33332 2.16675 9.74999V16.25C2.16675 21.6667 4.33341 23.8333 9.75008 23.8333Z" stroke="#8593A8" stroke-width="1.3" stroke-linecap="round" stroke-linejoin="round"/>
<path d="M16.7917 10.5625C17.6892 10.5625 18.4167 9.83496 18.4167 8.9375C18.4167 8.04004 17.6892 7.3125 16.7917 7.3125C15.8943 7.3125 15.1667 8.04004 15.1667 8.9375C15.1667 9.83496 15.8943 10.5625 16.7917 10.5625Z" stroke="#8593A8" stroke-width="1.3" stroke-miterlimit="10" stroke-linecap="round" stroke-linejoin="round"/>
<path d="M9.20825 10.5625C10.1057 10.5625 10.8333 9.83496 10.8333 8.9375C10.8333 8.04004 10.1057 7.3125 9.20825 7.3125C8.31079 7.3125 7.58325 8.04004 7.58325 8.9375C7.58325 9.83496 8.31079 10.5625 9.20825 10.5625Z" stroke="#8593A8" stroke-width="1.3" stroke-miterlimit="10" stroke-linecap="round" stroke-linejoin="round"/>
<path d="M9.1 14.4083H16.9C17.4417 14.4083 17.875 14.8417 17.875 15.3833C17.875 18.0808 15.6975 20.2583 13 20.2583C10.3025 20.2583 8.125 18.0808 8.125 15.3833C8.125 14.8417 8.55833 14.4083 9.1 14.4083Z" stroke="#8593A8" stroke-width="1.3" stroke-miterlimit="10" stroke-linecap="round" stroke-linejoin="round"/>
</svg>
