<svg width="26" height="26" viewBox="0 0 26 26" fill="none" xmlns="http://www.w3.org/2000/svg">
<path d="M9.74984 23.8334H16.2498C21.6665 23.8334 23.8332 21.6667 23.8332 16.25V9.75002C23.8332 4.33335 21.6665 2.16669 16.2498 2.16669H9.74984C4.33317 2.16669 2.1665 4.33335 2.1665 9.75002V16.25C2.1665 21.6667 4.33317 23.8334 9.74984 23.8334Z" stroke="#8593A8" stroke-width="1.3" stroke-linecap="round" stroke-linejoin="round"/>
<path d="M9.75016 10.8333C10.9468 10.8333 11.9168 9.86328 11.9168 8.66667C11.9168 7.47005 10.9468 6.5 9.75016 6.5C8.55355 6.5 7.5835 7.47005 7.5835 8.66667C7.5835 9.86328 8.55355 10.8333 9.75016 10.8333Z" stroke="#8593A8" stroke-width="1.3" stroke-linecap="round" stroke-linejoin="round"/>
<path d="M2.89258 20.5292L8.23341 16.9434C9.08924 16.3692 10.3242 16.4342 11.0934 17.095L11.4509 17.4092C12.2959 18.135 13.6609 18.135 14.5059 17.4092L19.0126 13.5417C19.8576 12.8159 21.2226 12.8159 22.0676 13.5417L23.8334 15.0584" stroke="#8593A8" stroke-width="1.3" stroke-linecap="round" stroke-linejoin="round"/>
</svg>
