<svg width="179" height="193" viewBox="0 0 179 193" fill="none" xmlns="http://www.w3.org/2000/svg">
<path d="M67.7865 161.895C86.7248 168.527 107.424 168.074 126.054 160.619C144.684 153.164 159.982 139.212 169.117 121.347C178.252 103.481 180.606 82.9106 175.743 63.443C170.88 43.9755 159.129 26.9288 142.665 15.4582C126.201 3.9875 106.139 -1.13043 86.1918 1.05162C66.245 3.23367 47.7639 12.568 34.1693 27.3268C20.5747 42.0857 12.787 61.2697 12.2476 81.3283C11.7082 101.387 18.4537 120.962 31.2355 136.43L44.0319 125.856C33.8065 113.481 28.4101 97.8214 28.8416 81.7745C29.2731 65.7277 35.5033 50.3804 46.379 38.5733C57.2547 26.7662 72.0395 19.2988 87.997 17.5532C103.954 15.8075 120.004 19.9019 133.175 29.0784C146.346 38.2549 155.747 51.8923 159.638 67.4663C163.529 83.0404 161.645 99.4966 154.337 113.789C147.029 128.082 134.79 139.243 119.887 145.207C104.983 151.171 88.4233 151.534 73.2727 146.228L67.7865 161.895Z" fill="#0067E0"/>
<path d="M52.2849 177.103C39.5816 172.173 28.7831 163.318 21.4614 151.826L75.4374 117.437L52.2849 177.103Z" fill="#0067E0"/>
<path d="M54.478 96.456C58.848 96.456 62.838 94.252 64.776 90.528L61.622 88.704C60.178 91.25 57.594 92.808 54.326 92.808C49.348 92.808 45.51 88.666 45.51 83.232C45.51 77.874 49.386 73.77 54.326 73.77C57.594 73.77 60.14 75.328 61.622 77.874L64.776 76.05C62.838 72.326 58.848 70.084 54.478 70.084C47.296 70.084 41.52 75.898 41.52 83.232C41.52 90.642 47.296 96.456 54.478 96.456ZM71.3426 96V86.766C71.3426 83.156 73.6606 80.496 76.9666 80.496C80.5006 80.496 82.3246 83.346 82.3246 86.652V96H86.0866V86.272C86.0866 80.572 83.0086 76.924 77.5366 76.924C75.0286 76.924 72.7866 77.912 71.3426 79.47V68.83H67.5806V96H71.3426ZM98.1112 96.456C101.151 96.456 103.621 95.012 105.027 92.732V96H108.599V86.652C108.599 81.104 104.305 76.924 98.6812 76.924C93.0192 76.924 88.7632 81.332 88.7632 86.652C88.7632 92.048 92.7152 96.456 98.1112 96.456ZM98.6812 92.884C95.2232 92.884 92.5252 90.072 92.5252 86.69C92.5252 83.27 95.2232 80.458 98.6812 80.458C102.177 80.458 104.837 83.27 104.837 86.69C104.837 90.072 102.177 92.884 98.6812 92.884ZM120.942 96.494C122.31 96.494 123.792 96.076 124.742 95.43V91.972C123.83 92.618 122.5 93.074 121.284 93.074C119.042 93.074 117.598 91.63 117.598 89.198V80.648H124.742V77.38H117.598V72.554H113.836V77.38H110.15V80.648H113.836V89.312C113.836 93.568 116.306 96.494 120.942 96.494ZM131.817 96L135.617 90.376C136.035 89.73 136.339 89.046 136.529 88.324H138.391C138.581 89.046 138.885 89.73 139.303 90.376L143.103 96H147.36L142.647 88.932C142.077 88.096 141.811 87.374 141.811 86.69C141.811 86.044 142.039 85.398 142.571 84.6L147.36 77.38H143.065L139.303 83.042C138.923 83.612 138.657 84.258 138.467 84.904H136.453C136.301 84.258 135.997 83.612 135.617 83.042L131.817 77.38H127.561L132.349 84.6C132.881 85.398 133.109 86.044 133.109 86.69C133.109 87.374 132.843 88.096 132.273 88.932L127.561 96H131.817Z" fill="white"/>
</svg>
